<svg xmlns="http://www.w3.org/2000/svg" viewBox="0 0 100 38.11"><defs><style>.cls-1{fill:#11182a;}</style></defs><g id="Layer_2" data-name="Layer 2"><g id="Layer_1-2" data-name="Layer 1"><path class="cls-1" d="M30.18,6.13H18V37.6H12.21V6.13H0V1H30.18Z"/><path class="cls-1" d="M27.53,29.72A7.21,7.21,0,0,1,29,25.24a9.21,9.21,0,0,1,4.07-3,15.29,15.29,0,0,1,6-1.08,26.91,26.91,0,0,1,3.66.25,14.92,14.92,0,0,1,3.35.83v-1.7a5.79,5.79,0,0,0-1.7-4.43,6.93,6.93,0,0,0-4.9-1.6,11.13,11.13,0,0,0-4.27.83,24,24,0,0,0-4.28,2.21L29,13.75a22,22,0,0,1,5.35-2.68A18.74,18.74,0,0,1,40,10.2q5.41,0,8.5,2.88c2.09,1.89,3.14,4.58,3.14,8.09v10A2.34,2.34,0,0,0,52,32.6a1.63,1.63,0,0,0,1.18.46V37.6a11.62,11.62,0,0,1-1.39.2c-.41,0-.75.05-1,.05A3.86,3.86,0,0,1,48,37a3.47,3.47,0,0,1-1.08-2.06l-.15-1.55a11.59,11.59,0,0,1-4.48,3.5,13.17,13.17,0,0,1-5.51,1.24A10.33,10.33,0,0,1,32,37a8.59,8.59,0,0,1-3.3-3A7.91,7.91,0,0,1,27.53,29.72Zm17.15,1.64a6.37,6.37,0,0,0,1-1.34A2.57,2.57,0,0,0,46,28.84V25.75a14.65,14.65,0,0,0-3-.82,16.22,16.22,0,0,0-3.14-.31,9.33,9.33,0,0,0-5.05,1.23,3.87,3.87,0,0,0-1.91,3.4,4.54,4.54,0,0,0,.62,2.27,5.11,5.11,0,0,0,1.85,1.75,6.3,6.3,0,0,0,3,.67A9.06,9.06,0,0,0,42,33.22,7.67,7.67,0,0,0,44.68,31.36Z"/><path class="cls-1" d="M58.6,0h5.67V29.82a3.79,3.79,0,0,0,.62,2.63,2.21,2.21,0,0,0,1.54.56,8.82,8.82,0,0,0,1.91-.2,7.61,7.61,0,0,0,1.59-.52l.83,4.48a17,17,0,0,1-2.94.88,14.77,14.77,0,0,1-3,.36,6.22,6.22,0,0,1-4.53-1.6,6.12,6.12,0,0,1-1.65-4.53Z"/><path class="cls-1" d="M86.15,38.11A14.41,14.41,0,0,1,80.43,37a13.91,13.91,0,0,1-4.38-3.09,14.22,14.22,0,0,1-2.78-4.43,15.12,15.12,0,0,1,0-10.71,13.46,13.46,0,0,1,2.78-4.43,13,13,0,0,1,4.38-3,14,14,0,0,1,5.72-1.13,13.59,13.59,0,0,1,5.66,1.13,12.27,12.27,0,0,1,4.38,3A13.12,13.12,0,0,1,99,18.8a15.12,15.12,0,0,1,0,10.71,13.84,13.84,0,0,1-2.83,4.43A13.06,13.06,0,0,1,91.81,37,14.25,14.25,0,0,1,86.15,38.11Zm-8-13.9a9.82,9.82,0,0,0,1.08,4.63,8.5,8.5,0,0,0,2.89,3.24,7.25,7.25,0,0,0,4.07,1.19,7.15,7.15,0,0,0,4-1.19,8.74,8.74,0,0,0,2.94-3.29,10,10,0,0,0,1.08-4.64,9.82,9.82,0,0,0-1.08-4.63,8.41,8.41,0,0,0-2.94-3.25,7,7,0,0,0-4-1.23,7.05,7.05,0,0,0-4.07,1.23,9.08,9.08,0,0,0-2.89,3.3A9.63,9.63,0,0,0,78.11,24.21Z"/></g></g></svg>