<svg xmlns="http://www.w3.org/2000/svg" viewBox="0 0 100 100"><defs><style>.cls-1{fill:#11182a;}</style></defs><g id="Layer_2" data-name="Layer 2"><g id="Layer_1-2" data-name="Layer 1"><path class="cls-1" d="M50,0c10.25,0,20.5,0,30.75,0,9.55,0,16.76,5.64,18.75,14.57A21.93,21.93,0,0,1,100,19.3q0,30.75,0,61.5c0,11.32-8,19.2-19.27,19.2H19C8,100,0,92,0,80.91V19.41C0,8,7.81.08,19.28,0,29.53,0,39.78,0,50,0ZM36,20.83c.45,2.18,1.79,2.55,3.66,2.81A108.54,108.54,0,0,1,54.8,26.45c9.45,2.74,17.45,8.11,24.46,15,.47.46,1.07,1.12,1.63,1.13,4.69.08,4.7,0,7.1-4.26.7-1.28,1.44-2.56,2-3.89C92.19,29.6,94.8,25,94.53,19.34c-.39-8.2-5.48-13.7-13.7-13.77-9.37-.08-18.75,0-28.11,0a3,3,0,0,0-1.78.5A86.23,86.23,0,0,0,36,20.83ZM78.32,44.37c-2.54-2.16-4.89-4.35-7.44-6.29a55.41,55.41,0,0,0-32-11.48,2.18,2.18,0,0,0-1.61.52c-1.15,1.41-2.15,3-3.43,4.78A124.73,124.73,0,0,0,50.76,66.23c.24.36.93.4,1.44.52A23.63,23.63,0,0,1,57,67.91a2.37,2.37,0,0,0,2.51,0,63.63,63.63,0,0,0,13.26-9.74c1.8-1.72,3.49-3.56,5.18-5.3-1.75-2.94-1.49-5.59.36-8.49Zm8.57,10.45c-2.22.11-3.78.49-5.18.17a2.46,2.46,0,0,0-2.79,1A65.59,65.59,0,0,1,61.19,70.2a2.14,2.14,0,0,0-1.39,2.57,5.16,5.16,0,0,1-.39,2.72,1.76,1.76,0,0,0,.49,2.3q7.83,7.27,15.63,14.6a8,8,0,0,0,6.22,2.06c6.32-.22,11.86-4.9,12.4-11.21.41-4.72.22-9.47.27-14.21a2.08,2.08,0,0,0-.23-1c-2.5-4.54-5-9.08-7.3-13.19ZM24.36,75.31a70.93,70.93,0,0,0,19.06-1.45c2-.41,3.74-.81,3.91-3.28a1.31,1.31,0,0,1,.4-.77c1-.94.61-1.76,0-2.73A130.54,130.54,0,0,1,31.25,33.45c-.43-1.33-1.08-2-2.54-1.76a74.75,74.75,0,0,0-9.43,36.43c0,.38.25,1,.54,1.12,2.74,1.11,4,3.25,4.54,6.08Zm48,19.16c-5-5-10-10-15.08-14.88a2.1,2.1,0,0,0-1.79-.24c-2.91.81-5.4.16-7.22-2.21a2.07,2.07,0,0,0-2.63-.77,66.7,66.7,0,0,1-19.29,2c-1.52-.08-2.89-.23-3.65,1.49a2.42,2.42,0,0,1-1.17,1c-1.1.48-1.16,1.19-.9,2.24.79,3.17,1.53,6.37,2.17,9.57.28,1.43.93,1.81,2.37,1.81,14.4-.06,28.81,0,43.18,0ZM5.65,72.55c1.54.35,3,.7,4.38,1a1.64,1.64,0,0,0,2.11-.91,7.74,7.74,0,0,1,2.95-2.84,2.24,2.24,0,0,0,1.41-2.42,63.79,63.79,0,0,1,3.11-21.09c1.76-5.18,4-10.21,6.27-15.2.7-1.55-.35-2.1-.86-3a1.62,1.62,0,0,0-1.3-.74A85,85,0,0,0,5.66,32.29Zm0-43.63c3.28-1,6.32-2,9.43-2.78,2.66-.7,5.38-1.15,8.08-1.69.7-.14,4.26-4.74,4.12-5.45-.84-4.42-1.69-8.83-2.55-13.29-2.48,0-5-.18-7.48,0A12.51,12.51,0,0,0,5.71,17.46c-.27,3.79-.06,7.61-.06,11.47ZM20,94.34c-.84-3.91-1.64-7.73-2.52-11.54-.09-.35-.69-.71-1.11-.83a6.94,6.94,0,0,1-4.67-4.18,2.08,2.08,0,0,0-1.09-1.15c-1.6-.46-3.26-.75-4.92-1.11C4.51,87.78,10.25,95.32,20,94.35ZM30.11,18.45c2.77,1.32,4.17.11,5.77-1.78,2.81-3.34,6.07-6.31,9.17-9.42a14.39,14.39,0,0,1,1.59-1.2l-.35-.35H27.86c.78,4.48,1.54,8.77,2.25,12.76ZM88,44.37c1.54,2.4,2.31,3.79,1.45,5.62-1.25,2.64.17,4.22,1.37,6.08.82,1.27,1.55,2.61,2.33,3.91.3.5.62,1,1.16,1.87V32.68Zm-57.2-16A3.12,3.12,0,0,0,32,28.22a3.19,3.19,0,0,0,1-.63,3.12,3.12,0,0,0,.71-1,3.25,3.25,0,0,0,.09-2.43,3.22,3.22,0,0,0-1.68-1.82A3,3,0,0,0,31,22.07a3.07,3.07,0,0,0-1.24.23,3.36,3.36,0,0,0-1,.69A3.22,3.22,0,0,0,28,24a3.16,3.16,0,0,0,.64,3.44,3.16,3.16,0,0,0,1,.68,3,3,0,0,0,1.19.24ZM83.3,52a3.18,3.18,0,0,0,3.11-3.14,3.31,3.31,0,0,0-3.29-3.2,3.18,3.18,0,0,0-2.23,1,3.33,3.33,0,0,0-.64,1.09A3.08,3.08,0,0,0,80.08,49a3,3,0,0,0,3.22,2.94ZM53.38,76.3a3.27,3.27,0,0,0,1.24-.21,3.13,3.13,0,0,0,1.06-.69,3.22,3.22,0,0,0,.7-1.05,3.31,3.31,0,0,0,.22-1.24,3.21,3.21,0,0,0-3.1-3.17,3.28,3.28,0,0,0-3.25,3.25,3.12,3.12,0,0,0,3.12,3.1ZM21,75.54a3.26,3.26,0,0,0-3.32-3.17,3.22,3.22,0,0,0-2.17,1,3.18,3.18,0,0,0-.85,2.23,2.92,2.92,0,0,0,.24,1.24,3.11,3.11,0,0,0,.71,1,3.11,3.11,0,0,0,2.32.86,3.2,3.2,0,0,0,2.17-1,3.16,3.16,0,0,0,.9-2.21Z"/></g></g></svg>